# xmcd
#
# Track frame offsets:
# 150
# 16859
# 31838
# 45399
# 62054
# 78949
# 96647
# 111193
# 127271
# 143091
# 158116
# 179405
# 195104
# 214035
#
# Disc length: 3093 seconds
#
#
# Revision: 2
# Processed by: cddbd v1.5.2PL0 Copyright (c) Steve Scherf et al.
# Submitted via: FreeRIP 2.951 
#
DISCID=b70c130e
DTITLE=Calcinha Preta - Vencedor 19
DYEAR=2008
DGENRE=A Cappella
TTITLE0=Já Me  Acostumei
TTITLE1=Tutti-Frutti
TTITLE2=Vamos Prá Lá Beber
TTITLE3=Garotas Não Choram
TTITLE4=Vou Tomar Um Porre
TTITLE5=Não Vale a Pena
TTITLE6=Vou Te Dominar
TTITLE7=Vencedor
TTITLE8=Amor Dividido
TTITLE9=Ana, Hoje Me Lembrei De Você
TTITLE10=Eu Me Apaixonei
TTITLE11=Amada, I Love You
TTITLE12=Desilusão
TTITLE13=Fique No Meu Coração
EXTD=
EXTT0=
EXTT1=
EXTT2=
EXTT3=
EXTT4=
EXTT5=
EXTT6=
EXTT7=
EXTT8=
EXTT9=
EXTT10=
EXTT11=
EXTT12=
EXTT13=
PLAYORDER=
